<svg data-name="Layer 1" width="690" height="448.759" version="1.1" id="svg44" xmlns="http://www.w3.org/2000/svg"><path d="M466.813 645.731c4.668-10.083 9.333-20.316 11.36-31.242s1.175-22.783-4.628-32.26-17.228-15.902-28.131-13.76c-8.955 1.76-16.146 8.813-20.357 16.91s-5.9 17.23-7.537 26.209c-.53-10.2-1.09-20.564-4.478-30.2s-10.06-18.614-19.57-22.343-21.878-.796-26.89 8.103c-7.06 12.538 2.302 30.126-5.817 42.006-1.393-11.917-13.855-21.332-25.7-19.416s-20.7 14.782-18.264 26.53c1.45 6.99 6.22 12.936 11.922 17.232s12.334 9.274 18.895 12.09Z" transform="translate(-255 -225.62)" fill="#f2f2f2" id="path1"/><path d="M323.02 598.158c9.408 3.288 18.903 6.614 27.492 11.755 7.698 4.608 14.553 10.812 18.882 18.757a33.356 33.356 0 0 1 4.126 13.859c.063 1.017 1.655 1.025 1.592 0-.557-9.061-4.972-17.353-11.087-23.91-6.704-7.19-15.392-12.101-24.361-15.911-5.318-2.26-10.769-4.18-16.221-6.085-.969-.339-1.385 1.198-.423 1.535Z" transform="translate(-255 -225.62)" fill="#fff" id="path2"/><path d="M377.287 560.625a143.383 143.383 0 0 1 13.792 30.615 145.117 145.117 0 0 1 6.36 32.969 143.305 143.305 0 0 1 .152 18.837c-.059 1.023 1.533 1.02 1.592 0a145.194 145.194 0 0 0-2.04-33.82 146.926 146.926 0 0 0-9.77-32.441 143.25 143.25 0 0 0-8.711-16.963.796.796 0 0 0-1.375.803Z" transform="translate(-255 -225.62)" fill="#fff" id="path3"/><path d="M455.188 569.767a232.044 232.044 0 0 0-17.116 57.579q-1.343 8.365-2.078 16.812c-.09 1.02 1.503 1.014 1.591 0a231.21 231.21 0 0 1 12.738-58.026q2.834-7.892 6.24-15.561c.411-.928-.96-1.739-1.375-.804Z" transform="translate(-255 -225.62)" fill="#fff" id="path4"/><path transform="rotate(89.259 700.897 420.802)" fill="#e6e6e6" id="rect4" d="M709.176 639.478h9.882v46.588h-9.882z"/><path d="m754.027 669.616-6.653-.02-4.112-7.336 4.445-7.313 6.18.018a11.999 11.999 0 1 0 .14 14.651Z" transform="translate(-255 -225.62)" fill="#e6e6e6" id="path5"/><path d="m674.208 669.616 6.653-.02 4.112-7.336-4.445-7.313-6.18.018a11.999 11.999 0 1 1-.14 14.651Z" transform="translate(-255 -225.62)" fill="#e6e6e6" id="path6"/><path d="M944 646.59H256a1 1 0 0 1 0-2h688a1 1 0 0 1 0 2Z" transform="translate(-255 -225.62)" fill="#3f3d56" id="path7"/><circle cx="540.486" cy="197.969" r="33" fill="#2f2e41" id="circle7"/><path fill="#ffb8b8" id="polygon7" d="m553.859 383.226 2.542 11.993 47.47-4.095-3.751-17.701-46.261 9.803z"/><path d="M789.188 618.497h38.53v14.887h-23.643a14.887 14.887 0 0 1-14.887-14.887Z" transform="rotate(-101.965 589.544 616.443)" fill="#2f2e41" id="path8"/><path fill="#ffb8b8" id="polygon8" d="m524.12 382.586-5.343 11.035-45.104-15.357 7.886-16.285 42.561 20.607z"/><path d="M771.037 617.456h23.644v14.886h-38.53a14.887 14.887 0 0 1 14.886-14.886Z" transform="rotate(-64.165 467.958 715.48)" fill="#2f2e41" id="path9"/><path d="M690.26 586.414a10.743 10.743 0 0 0 12.708-10.48l74.374-68.572-18.47-14.305L691.535 565a10.8 10.8 0 0 0-1.276 21.414Z" transform="translate(-255 -225.62)" fill="#ffb8b8" id="path10"/><circle cx="536.344" cy="207.898" r="24.561" fill="#ffb8b8" id="circle10"/><path d="M813.386 577.893c-17.228 0-37.978-3.628-50.778-18.477l-.289-.334.297-.328c.097-.107 9.514-10.869.11-30.061L749.8 532.67l-12.87-16.989 7.13-21.389 29.177-23.504a26.75 26.75 0 0 1 14.61-5.789 80.21 80.21 0 0 0 27.785-7.913 27.906 27.906 0 0 1 12.8-2.798l.574.016a9.95 9.95 0 0 1 9.64 10.707c-1.978 25.63-5.472 87.544 4.792 108.862l.265.55-.592.15a136.113 136.113 0 0 1-29.724 3.32Z" transform="translate(-255 -225.62)" fill="#6c63ff" id="path11" style="fill:#15aabf;fill-opacity:1"/><path d="M765.986 559.09s-65-6-72 13 1 28 13 32 41 9 41 9l13-16 34 2s37.885 21.973 48.36 45.473a30.762 30.762 0 0 0 25.777 18.239c8.398.584 15.863-2.587 15.863-15.712 0-30-42-73-42-73Z" transform="translate(-255 -225.62)" fill="#2f2e41" id="path12"/><path d="M716.486 588.59s17-5 44 8" transform="translate(-255 -225.62)" fill="#2f2e41" id="path13"/><path d="M766.843 417.855a73.041 73.041 0 0 0 31.6 10.412l-3.332-3.99a24.477 24.477 0 0 0 7.561 1.5 8.28 8.28 0 0 0 6.75-3.158 7.702 7.702 0 0 0 .515-7.115 14.589 14.589 0 0 0-4.589-5.739 27.323 27.323 0 0 0-25.43-4.545 16.33 16.33 0 0 0-7.596 4.872 9.236 9.236 0 0 0-1.863 8.561" transform="translate(-255 -225.62)" fill="#2f2e41" id="path14"/><path d="M795.31 398.224a75.485 75.485 0 0 1 19.136-26.521c5.292-4.703 11.472-8.743 18.446-9.963s14.833.87 19.11 6.511c3.499 4.613 4.153 10.793 3.768 16.57s-1.677 11.496-1.553 17.283a35.468 35.468 0 0 0 50.527 31.351c-6.022 3.33-10.714 8.598-16.305 12.609s-12.963 6.76-19.312 4.11c-6.718-2.804-9.8-10.42-12.206-17.29l-10.732-30.64c-1.824-5.208-3.739-10.571-7.462-14.645s-9.765-6.557-14.89-4.509c-3.883 1.552-6.412 5.258-8.63 8.804s-4.557 7.32-8.303 9.18-9.299.714-10.523-3.285" transform="translate(-255 -225.62)" fill="#2f2e41" id="path15"/><path transform="rotate(-45.741 412.919 756.065)" fill="#e6e6e6" id="rect15" d="M802.919 543.314h9.882v46.588h-9.882z"/><path d="M821.51 579.91a9.882 9.882 0 1 0 13.975-.181 9.882 9.882 0 0 0-13.975.18Zm10.111 9.852a4.235 4.235 0 1 1-.077-5.989 4.235 4.235 0 0 1 .077 5.99Z" transform="translate(-255 -225.62)" fill="#e6e6e6" id="path16"/><path d="m784.48 533.549 4.69 4.718-2.28 8.096-8.314 2.027-4.358-4.383a11.999 11.999 0 1 0 10.262-10.458Z" transform="translate(-255 -225.62)" fill="#e6e6e6" id="path17"/><path d="M803.736 577.98a11.579 11.579 0 0 1-1.268-.071 11.023 11.023 0 0 1-9.68-9.681 11.003 11.003 0 0 1 10.93-12.25 10.625 10.625 0 0 1 1.467.11l33.578-35.746-3.505-11.685 17.605-7.891 4.934 12.06a20.49 20.49 0 0 1-6.177 23.672L814.659 565.9a10.259 10.259 0 0 1 .06 1.079 11.018 11.018 0 0 1-3.664 8.197 10.872 10.872 0 0 1-7.319 2.804Z" transform="translate(-255 -225.62)" fill="#ffb8b8" id="path18"/><path d="M829.986 459.09a9.453 9.453 0 0 1 12.628 5.156l17.372 43.844-27 18Z" transform="translate(-255 -225.62)" fill="#6c63ff" id="path19" style="fill:#15aabf;fill-opacity:1"/><path d="M703.486 469.327V250.883a25.298 25.298 0 0 0-25.262-25.263h-343.27a25.298 25.298 0 0 0-25.262 25.263v218.444a25.298 25.298 0 0 0 25.262 25.263h343.27a25.298 25.298 0 0 0 25.262-25.263Zm-368.532 22.29a22.317 22.317 0 0 1-22.29-22.29V250.883a22.317 22.317 0 0 1 22.29-22.29h343.27a22.317 22.317 0 0 1 22.29 22.29v218.444a22.317 22.317 0 0 1-22.29 22.29Z" transform="translate(-255 -225.62)" fill="#3f3d56" id="path20"/><path d="M700.514 264.924h-387.85a1.486 1.486 0 1 1 0-2.972h387.85a1.486 1.486 0 0 1 0 2.972Z" transform="translate(-255 -225.62)" fill="#3f3d56" id="path21"/><circle cx="82.926" cy="20.804" r="7.43" fill="#6c63ff" id="circle21" style="fill:#15aabf;fill-opacity:1"/><circle cx="108.188" cy="20.804" r="7.43" fill="#6c63ff" id="circle22" style="fill:#15aabf;fill-opacity:1"/><circle cx="133.451" cy="20.804" r="7.43" fill="#6c63ff" id="circle23" style="fill:#15aabf;fill-opacity:1"/><path d="M443.979 424.852a1 1 0 0 1-1-1c0-10.427-4.571-16.242-11.946-22.247a1 1 0 1 1 1.263-1.55c7.83 6.374 12.683 12.58 12.683 23.797a1 1 0 0 1-1 1Z" transform="translate(-255 -225.62)" id="path23"/><path d="M358.317 424.852a1 1 0 0 1-1-1c0-11.218 4.852-17.423 12.682-23.798a1 1 0 1 1 1.263 1.551c-7.375 6.005-11.945 11.821-11.945 22.247a1 1 0 0 1-1 1Z" transform="translate(-255 -225.62)" id="path24"/><path d="M435.413 356.322a1 1 0 0 1-.632-1.776c7.581-6.171 8.198-14.938 8.198-24.923a1 1 0 0 1 2 0c0 10.505-.673 19.748-8.935 26.474a.994.994 0 0 1-.63.225Z" transform="translate(-255 -225.62)" id="path25"/><path d="M366.882 355.787a.994.994 0 0 1-.63-.225c-8.263-6.727-8.935-15.727-8.935-25.939a1 1 0 0 1 2 0c0 10.037.603 18.206 8.197 24.388a1 1 0 0 1-.632 1.776Z" transform="translate(-255 -225.62)" id="path26"/><path d="M456.828 377.772h-21.415a1 1 0 0 1 0-2h21.415a1 1 0 1 1 0 2Z" transform="translate(-255 -225.62)" id="path27"/><path d="M366.883 377.772h-21.416a1 1 0 0 1 0-2h21.416a1 1 0 0 1 0 2Z" transform="translate(-255 -225.62)" id="path28"/><path d="M401.148 420.569a1 1 0 0 1-1-1v-68.53a1 1 0 0 1 2 0v68.53a1 1 0 0 1-1 1Z" transform="translate(-255 -225.62)" id="path29"/><path d="M401.148 420.569a35.305 35.305 0 0 1-35.265-35.265v-25.718c0-16.468 13.513-26.698 35.265-26.698 22.74 0 35.265 9.482 35.265 26.698v25.718a35.305 35.305 0 0 1-35.265 35.265Zm0-85.681c-16.081 0-33.265 6.488-33.265 24.698v25.718a33.265 33.265 0 1 0 66.53 0v-25.718c0-21.49-20.842-24.698-33.265-24.698Z" transform="translate(-255 -225.62)" id="path30"/><path d="M380.651 339.062a1 1 0 0 1-.93-.63 14.088 14.088 0 0 1-.987-4.532 22.476 22.476 0 0 1 22.355-22.41h.115a22.467 22.467 0 0 1 22.36 22.358 12.227 12.227 0 0 1-.911 4.21 1 1 0 0 1-1.85-.76 10.195 10.195 0 0 0 .761-3.487 20.454 20.454 0 0 0-20.363-20.32h-.11a20.461 20.461 0 0 0-20.359 20.362 12.076 12.076 0 0 0 .847 3.837 1.001 1.001 0 0 1-.928 1.372Z" transform="translate(-255 -225.62)" id="path31"/><path d="M502.71 333.623h-12a7 7 0 0 1 0-14h12a7 7 0 0 1 0 14Z" transform="translate(-255 -225.62)" fill="#ccc" id="path32"/><path d="M584.71 363.123h-12a7 7 0 0 1 0-14h12a7 7 0 0 1 0 14Z" transform="translate(-255 -225.62)" fill="#ccc" id="path33"/><path d="M622.71 363.123h-12a7 7 0 0 1 0-14h12a7 7 0 0 1 0 14Z" transform="translate(-255 -225.62)" fill="#ccc" id="path34"/><path d="M660.71 363.123h-12a7 7 0 0 1 0-14h12a7 7 0 0 1 0 14Z" transform="translate(-255 -225.62)" fill="#ccc" id="path35"/><path d="M585.71 334.123h-56a7 7 0 0 1 0-14h56a7 7 0 0 1 0 14Z" transform="translate(-255 -225.62)" fill="#ccc" id="path36"/><path d="M546.71 362.123h-56a7 7 0 0 1 0-14h56a7 7 0 0 1 0 14Z" transform="translate(-255 -225.62)" fill="#ccc" id="path37"/><path d="M656.71 334.123h-43a7 7 0 0 1 0-14h43a7 7 0 0 1 0 14Z" transform="translate(-255 -225.62)" fill="#ccc" id="path38"/><path d="M502.71 392.623h-12a7 7 0 0 1 0-14h12a7 7 0 0 1 0 14Z" transform="translate(-255 -225.62)" fill="#ccc" id="path39"/><path d="M585.71 393.123h-56a7 7 0 0 1 0-14h56a7 7 0 0 1 0 14Z" transform="translate(-255 -225.62)" fill="#ccc" id="path40"/><path d="M656.71 393.123h-43a7 7 0 0 1 0-14h43a7 7 0 0 1 0 14Z" transform="translate(-255 -225.62)" fill="#ccc" id="path41"/><path d="M637.71 416.623a7.008 7.008 0 0 1 7-7h12a7 7 0 0 1 0 14h-12a7.008 7.008 0 0 1-7-7Z" transform="translate(-255 -225.62)" fill="#ccc" id="path42"/><path d="M554.71 417.123a7.008 7.008 0 0 1 7-7h56a7 7 0 0 1 0 14h-56a7.008 7.008 0 0 1-7-7Z" transform="translate(-255 -225.62)" fill="#ccc" id="path43"/><path d="M483.71 417.123a7.008 7.008 0 0 1 7-7h43a7 7 0 0 1 0 14h-43a7.008 7.008 0 0 1-7-7Z" transform="translate(-255 -225.62)" fill="#ccc" id="path44"/></svg>